<svg xmlns="http://www.w3.org/2000/svg" width="8" height="5" viewBox="0 0 8 5">
    <defs>
        <style>
            .cls-1{fill:#fff}
        </style>
    </defs>
    <path id="ic-down-white" d="M7.81.57L7.425.188A.66.66 0 0 0 6.958 0 .632.632 0 0 0 6.5.188L4 2.663 1.5.188A.632.632 0 0 0 1.042 0a.66.66 0 0 0-.467.188L.195.57A.63.63 0 0 0 0 1.034a.6.6 0 0 0 .195.458l3.343 3.315A.613.613 0 0 0 4 5a.64.64 0 0 0 .467-.193L7.81 1.492A.621.621 0 0 0 8 1.034.65.65 0 0 0 7.81.57z" class="cls-1"/>
</svg>
